# xmcd
#
# Track frame offsets:
#	150
#	14860
#	28667
#	44410
#	54916
#	68468
#	82778
#	97841
#	113570
#	128948
#	141620
#	158266
#
# Disc length: 2277 seconds
#
# Revision: 0
# Processed by: cddbd v1.5.2PL0 Copyright (c) Steve Scherf et al.
# Submitted via: EasyCDDAExtractor 16.0.6.1
#
DISCID=9008e30c
DTITLE=Καζαντζίδης Στέλιος - Τα καλύτερά μου τραγούδια-Στ. Καζαντζίδης 2
DYEAR=1978
DGENRE=Λαϊκή
TTITLE0=Καζαντζίδης Στέλιος - Στην αγκαλιά μου έκλαιγες [Στ. Καζαντζίδη-Ι. Βασ
TTITLE0=ιλόπουλου]
TTITLE1=Καζαντζίδης Στέλιος - Χτυπώ την πόρτα της ζωής [Τ. Παναγόπουλου]
TTITLE2=Καζαντζίδης Στέλιος - Πριν χαράξει θα φύγω [Μπ. Μπακάλη-Φ. Ζησούλη]
TTITLE3=Καζαντζίδης Στέλιος - Την πόρτα σου [Γ. Κατσαρού-Π. Παπασταματίου]
TTITLE4=Καζαντζίδης Στέλιος-Μαρινέλλα - Της νύχτας ο διαβάτης [Κ. Βίρβου-Θ. Δε
TTITLE4=ρβενιώτη]
TTITLE5=Καζαντζίδης Στέλιος - Τι φταίω εγώ [Στ. Βαρτάνη-Στ. Καζαντζίδη]
TTITLE6=Καζαντζίδης Στέλιος - Η επιστροφή του ασώτου [Κ. Βίρβου-Μπ. Μπακάλη]
TTITLE7=Καζαντζίδης Στέλιος - Όποιος γεννιέται καλός [Κ. Βίρβου-Μπ. Μπακάλη]
TTITLE8=Καζαντζίδης Στέλιος - Δυό ψυχές που αγαπήθηκαν [Μπ. Μπακάλη-Φ. Ζησούλη
TTITLE8=]
TTITLE9=Καζαντζίδης Στέλιος - Με το βορριά [Γ. Ζαμπέτα-Δ. Χριστοδούλου]
TTITLE10=Καζαντζίδης Στέλιος - Δρόμος δίχως σύνορα [Γ. Κατσαρού-Π. Παπασταματί
TTITLE10=ου]
TTITLE11=Καζαντζίδης Στέλιος - Μεσάνυχτα πού να σε βρω [Γ. Ζαμπέτα-Δ. Χριστοδο
TTITLE11=ύλου]
EXTD=
EXTT0=
EXTT1=
EXTT2=
EXTT3=
EXTT4=
EXTT5=
EXTT6=
EXTT7=
EXTT8=
EXTT9=
EXTT10=
EXTT11=
PLAYORDER=
